<svg width="422" height="496" viewBox="0 0 422 496" fill="none" xmlns="http://www.w3.org/2000/svg">
<g filter="url(#filter0_d_2_47)">
<path d="M16 18C16 16.8954 16.8954 16 18 16H403.161C404.266 16 405.161 16.8954 405.161 18V478C405.161 479.105 404.266 480 403.161 480H18C16.8954 480 16 479.105 16 478V18Z" fill="#6FCF97"/>
<path d="M16 18C16 16.8954 16.8954 16 18 16H403.161C404.266 16 405.161 16.8954 405.161 18V478C405.161 479.105 404.266 480 403.161 480H18C16.8954 480 16 479.105 16 478V18Z" fill="url(#paint0_linear_2_47)" fill-opacity="0.5"/>
</g>
<defs>
<filter id="filter0_d_2_47" x="0" y="0" width="421.161" height="496" filterUnits="userSpaceOnUse" color-interpolation-filters="sRGB">
<feFlood flood-opacity="0" result="BackgroundImageFix"/>
<feColorMatrix in="SourceAlpha" type="matrix" values="0 0 0 0 0 0 0 0 0 0 0 0 0 0 0 0 0 0 127 0" result="hardAlpha"/>
<feOffset/>
<feGaussianBlur stdDeviation="8"/>
<feColorMatrix type="matrix" values="0 0 0 0 0 0 0 0 0 0 0 0 0 0 0 0 0 0 0.08 0"/>
<feBlend mode="normal" in2="BackgroundImageFix" result="effect1_dropShadow_2_47"/>
<feBlend mode="normal" in="SourceGraphic" in2="effect1_dropShadow_2_47" result="shape"/>
</filter>
<linearGradient id="paint0_linear_2_47" x1="405.161" y1="16" x2="106.291" y2="481.752" gradientUnits="userSpaceOnUse">
<stop stop-color="white"/>
<stop offset="1" stop-color="white" stop-opacity="0"/>
</linearGradient>
</defs>
</svg>
